<svg id="Layer_1" data-name="Layer 1" xmlns="http://www.w3.org/2000/svg" viewBox="0 0 66.36 66.33">
    <defs>
        <style>.cls-1{fill:#196fb7;}.cls-2{fill:none;stroke:#fff;stroke-miterlimit:10;stroke-width:0.25px;}</style>
    </defs>
    <path class="cls-1"
          d="M329.44,377.7l-.32.05-.36,0L265,369.79a1.66,1.66,0,0,1-.53-.18l-.43-.48a1.72,1.72,0,0,1-.1-.55V320.87a1.66,1.66,0,0,1,.1-.54l.43-.48a1.64,1.64,0,0,1,.53-.17l63.75-8a3.62,3.62,0,0,1,.57,0,.91.91,0,0,1,.42.2.78.78,0,0,1,.24.39,2.6,2.6,0,0,1,.06.56v63.75a2.6,2.6,0,0,1-.06.56.78.78,0,0,1-.24.39A.67.67,0,0,1,329.44,377.7ZM266,368.11l62,7.71a.28.28,0,0,0,.31-.28V313.88a.28.28,0,0,0-.31-.29L266,321.34a.34.34,0,0,0-.28.32v46.16A.29.29,0,0,0,266,368.11Z"
          transform="translate(-263.82 -311.55)"/>
    <path class="cls-2"
          d="M329.44,377.7l-.32.05-.36,0L265,369.79a1.66,1.66,0,0,1-.53-.18l-.43-.48a1.72,1.72,0,0,1-.1-.55V320.87a1.66,1.66,0,0,1,.1-.54l.43-.48a1.64,1.64,0,0,1,.53-.17l63.75-8a3.62,3.62,0,0,1,.57,0,.91.91,0,0,1,.42.2.78.78,0,0,1,.24.39,2.6,2.6,0,0,1,.06.56v63.75a2.6,2.6,0,0,1-.06.56.78.78,0,0,1-.24.39A.67.67,0,0,1,329.44,377.7ZM266,368.11l62,7.71a.28.28,0,0,0,.31-.28V313.88a.28.28,0,0,0-.31-.29L266,321.34a.34.34,0,0,0-.28.32v46.16A.29.29,0,0,0,266,368.11Z"
          transform="translate(-263.82 -311.55)"/>
    <path class="cls-1"
          d="M277.17,376.78l31.6-7.86a.29.29,0,0,0,.21-.28V320.81a.28.28,0,0,0-.21-.27l-31.6-7.91a.28.28,0,0,0-.35.28V376.5A.28.28,0,0,0,277.17,376.78Z"
          transform="translate(-263.82 -311.55)"/>
    <path class="cls-2"
          d="M277.17,376.78l31.6-7.86a.29.29,0,0,0,.21-.28V320.81a.28.28,0,0,0-.21-.27l-31.6-7.91a.28.28,0,0,0-.35.28V376.5A.28.28,0,0,0,277.17,376.78Z"
          transform="translate(-263.82 -311.55)"/>
</svg>
